<?xml version="1.0" encoding="utf-8"?>
<!-- Generator: Adobe Illustrator 26.0.1, SVG Export Plug-In . SVG Version: 6.00 Build 0)  -->
<svg version="1.1" id="Layer_1" xmlns="http://www.w3.org/2000/svg" xmlns:xlink="http://www.w3.org/1999/xlink" x="0px" y="0px"
	 width="500px" height="500px" viewBox="0 0 500 500" style="enable-background:new 0 0 500 500;" xml:space="preserve">
<style type="text/css">
	.st0{fill:#FFFFFF;stroke:#048ABF;stroke-width:17;stroke-miterlimit:10;}
	.st1{fill:#333333;}
	.st2{fill:#333333;stroke:#333333;stroke-width:3;stroke-miterlimit:10;}
	.st3{fill:none;}
</style>
<path class="st0" d="M439.4,86.9c0,0,0,130.4,0,172.7c0,132.2-189.6,222.2-189.6,222.2S60.2,391.8,60.2,259.7
	c0-42.4,0-172.7,0-172.7s63.6,1.8,189.6-69.7c0,0,0,0,0,0s0,0,0,0C375.8,88.7,439.4,86.9,439.4,86.9z"/>
<g>
	<g>
		<g>
			<path class="st1" d="M195.2,232.8c-0.3-0.2-0.5-0.5-0.7-0.8L195.2,232.8z"/>
			<path class="st1" d="M194.5,232c0.2,0.3,0.5,0.6,0.7,0.8L194.5,232L194.5,232z"/>
		</g>
		<g>
			<path class="st2" d="M336.4,320.7L216,214.5c-1.9-1.7-3.6-3.5-5.1-5.6c-26-35.7-12.6-65.4-36.3-79.3
				c-22.5-13.2-49.6,4.2-49.6,4.2l34.3,15.7c0.6,0.3,0.9,1,0.6,1.7c-3.1,7.2-19.9,45.8-25,57.4c-0.6,1.4,0.5,2.9,2,2.7
				c8.8-1.1,33.4-1.7,57.6,20.8l0.7,0.8l108.2,121.1c9.2,9.1,24,9,33.1-0.2C345.6,344.6,345.6,329.7,336.4,320.7z M173.2,182.8
				l-7.9,19.8c-0.3,0.5-0.9,0.9-1.5,0.6l-9.4-3.7c-0.5-0.3-0.9-0.9-0.6-1.5l7.9-19.8c0.3-0.5,0.9-0.9,1.5-0.6l9.4,3.7
				C173.1,181.6,173.4,182.3,173.2,182.8z M319.3,352.4c-8.6-0.2-15.3-7.4-15.1-15.9c0.2-8.6,7.4-15.3,15.9-15.1
				c8.6,0.2,15.3,7.4,15.1,15.9C335,345.9,327.9,352.6,319.3,352.4z"/>
			<path class="st3" d="M173.2,182.8l-7.9,19.8c-0.3,0.5-0.9,0.9-1.5,0.6l-9.4-3.7c-0.5-0.3-0.9-0.9-0.6-1.5l7.9-19.8
				c0.3-0.5,0.9-0.9,1.5-0.6l9.4,3.7C173.1,181.6,173.4,182.3,173.2,182.8z"/>
			<path class="st2" d="M143.9,174.6l-28.6-16.5c0,0-3.6,28.5,18.8,38.7L143.9,174.6z"/>
		</g>
	</g>
	<g id="Hammer_00000155855784712361121310000014959619221917741187_">
		<g>
			<path class="st1" d="M358.5,219.7c-1.6,0-3.2-0.6-4.3-1.8l-54.7-54.7c-0.6-0.6-1.1-1.3-1.4-2.1L279,121.6
				c-0.7-1.5-0.5-3.1,0.4-4.5c0.9-1.4,2.5-2.2,4-2.2c0.7,0,1.3,0.1,2,0.4l39.5,19c0.8,0.4,1.5,0.9,2.1,1.5l54.7,54.7
				c1.2,1.1,1.8,2.7,1.8,4.3c0,1.6-0.6,3.2-1.8,4.3l-18.8,18.8C361.6,219,360.1,219.7,358.5,219.7z"/>
			<path class="st1" d="M283.4,116.3L283.4,116.3c0.4,0,0.9,0.1,1.3,0.3l39.4,19l0,0l0,0c0.6,0.3,1.2,0.7,1.6,1.1l54.7,54.7
				c1.8,1.8,1.8,4.7,0,6.5l-18.8,18.8c-0.9,0.9-2,1.3-3.2,1.3c-1.2,0-2.4-0.5-3.2-1.3l-54.7-54.7c-0.5-0.5-0.9-1-1.1-1.6l0,0l0,0
				l-19-39.4c-0.6-1.4-0.1-2.5,0.2-3.1C281.2,116.9,282.3,116.3,283.4,116.3 M283.4,113.3c-4.3,0-7.7,4.5-5.8,8.9l19.1,39.5
				c0.4,1,1,1.8,1.8,2.6l54.7,54.7c1.5,1.5,3.4,2.2,5.4,2.2s3.9-0.7,5.4-2.2l18.8-18.8c3-3,3-7.8,0-10.7L328,134.7
				c-0.7-0.7-1.6-1.3-2.6-1.8L286,113.9C285.1,113.5,284.2,113.3,283.4,113.3L283.4,113.3z"/>
		</g>
		<path class="st2" d="M217.7,267.7l-69.2,69.2c-1.5,1.5-1.5,4.1,0.1,5.7l16.9,16.9c1.6,1.6,4.1,1.7,5.7,0.1l68-68L217.7,267.7z"/>
		<polygon class="st2" points="249.7,235.6 306,179.3 328.7,202 273.9,256.8 		"/>
		<path class="st2" d="M364.8,165.9L364.8,165.9c2.2-2.2,2.2-5.9,0-8.1l-14.5-14.5c-2.2-2.2-5.9-2.2-8.1,0l0,0L364.8,165.9z"/>
	</g>
</g>
</svg>
